<svg width="19" height="20" viewBox="0 0 19 20" fill="none" xmlns="http://www.w3.org/2000/svg">
<g clip-path="url(#clip0_281_1130)">
<path d="M17.0376 7.67174L9.5755 2.0415L2.10651 7.67174C1.9521 7.81423 1.85926 8.01125 1.84766 8.22104V16.8188C1.8482 16.9968 1.91912 17.1672 2.04494 17.2931C2.17075 17.4189 2.34124 17.4898 2.51917 17.4903H6.99727V13.8877C6.99727 13.2048 7.26854 12.5499 7.75141 12.067C8.23428 11.5841 8.88919 11.3129 9.57207 11.3129C10.255 11.3129 10.9099 11.5841 11.3927 12.067C11.8756 12.5499 12.1469 13.2048 12.1469 13.8877V17.4924H16.6243C16.8023 17.4919 16.9728 17.421 17.0988 17.2952C17.2247 17.1694 17.2958 16.9989 17.2965 16.8209V8.22104C17.2846 8.01132 17.1918 7.81441 17.0376 7.67174Z" stroke="#211F54" stroke-width="1.85411" stroke-linecap="round" stroke-linejoin="round"/>
</g>
<defs>
<clipPath id="clip0_281_1130">
<rect width="18.5411" height="18.5411" fill="white" transform="translate(0.300781 0.496582)"/>
</clipPath>
</defs>
</svg>
